Coordinates
version=1
nRows=4
nColumns=114
inDegrees=yes

Units are S.I. units (second, meters, Newtons, ...)
If the header above contains a line with 'inDegrees', this indicates whether rotational values are in degrees (yes) or radians (no).

endheader 
time	pelvis_tilt	pelvis_list	pelvis_rotation	pelvis_tx	pelvis_ty	pelvis_tz	hip_flexion_l	hip_adduction_l	hip_rotation_l	hip_flexion_r	hip_adduction_r	hip_rotation_r	knee_angle_l	knee_angle_r	ankle_angle_l	ankle_angle_r	subtalar_angle_l	subtalar_angle_r	mtp_angle_l	mtp_angle_r	lumbar_extension	lumbar_bending	lumbar_rotation	arm_flex_l	arm_add_l	arm_rot_l	arm_flex_r	arm_add_r	arm_rot_r	elbow_flex_l	elbow_flex_r	pro_sup_l	pro_sup_r	addbrev_l/activation	addlong_l/activation	addmagDist_l/activation	addmagIsch_l/activation	addmagMid_l/activation	addmagProx_l/activation	bflh_l/activation	bfsh_l/activation	edl_l/activation	ehl_l/activation	fdl_l/activation	fhl_l/activation	gaslat_l/activation	gasmed_l/activation	glmax1_l/activation	glmax2_l/activation	glmax3_l/activation	glmed1_l/activation	glmed2_l/activation	glmed3_l/activation	glmin1_l/activation	glmin2_l/activation	glmin3_l/activation	grac_l/activation	iliacus_l/activation	perbrev_l/activation	perlong_l/activation	piri_l/activation	psoas_l/activation	recfem_l/activation	sart_l/activation	semimem_l/activation	semiten_l/activation	soleus_l/activation	tfl_l/activation	tibant_l/activation	tibpost_l/activation	vasint_l/activation	vaslat_l/activation	vasmed_l/activation	addbrev_r/activation	addlong_r/activation	addmagDist_r/activation	addmagIsch_r/activation	addmagMid_r/activation	addmagProx_r/activation	bflh_r/activation	bfsh_r/activation	edl_r/activation	ehl_r/activation	fdl_r/activation	fhl_r/activation	gaslat_r/activation	gasmed_r/activation	glmax1_r/activation	glmax2_r/activation	glmax3_r/activation	glmed1_r/activation	glmed2_r/activation	glmed3_r/activation	glmin1_r/activation	glmin2_r/activation	glmin3_r/activation	grac_r/activation	iliacus_r/activation	perbrev_r/activation	perlong_r/activation	piri_r/activation	psoas_r/activation	recfem_r/activation	sart_r/activation	semimem_r/activation	semiten_r/activation	soleus_r/activation	tfl_r/activation	tibant_r/activation	tibpost_r/activation	vasint_r/activation	vaslat_r/activation	vasmed_r/activation	
          1.10000000	         -1.46085032	         -2.75064359	        -31.23761676	          1.19023185	          0.92381272	          0.29762576	         -4.95790066	        -13.12186161	        -14.99587015	         -6.69206735	          3.40094188	        -10.18690412	          8.06214576	          3.37602420	          4.55466337	         11.32291653	         -9.07028071	         -9.96543839	          4.99689065	          4.99732516	         -6.68807481	          4.27141804	          0.65000761	          2.38372625	        -12.30882417	         30.07498391	          1.73412863	        -20.32741240	         22.53316905	         25.10354252	         28.85656179	         65.93397460	         63.35581278	          0.01030272	          0.01023776	          0.01048808	          0.01061082	          0.01029579	          0.01071778	          0.01529879	          0.03035385	          0.01279562	          0.01225665	          0.01321616	          0.01376112	          0.14813121	          0.30166580	          0.01493104	          0.01452938	          0.01320914	          0.07385342	          0.01666622	          0.01506325	          0.01960507	          0.01964109	          0.01689638	          0.01189877	          0.01056750	          0.02119619	          0.01986663	          0.01829247	          0.01077151	          0.01010489	          0.02267386	          0.06428386	          0.03137774	          0.06896963	          0.02891425	          0.01030220	          0.01558413	          0.01017733	          0.01006249	          0.01012718	          0.05831018	          0.21114549	          0.01265632	          0.01163692	          0.01507279	          0.01769868	          0.01172876	          0.03203655	          0.01870464	          0.02519134	          0.02885886	          0.02020452	          0.07239789	          0.18909899	          0.01136202	          0.01080489	          0.01139666	          0.01034777	          0.01132216	          0.01156993	          0.01072489	          0.01263437	          0.01238428	          0.01933061	          0.01140011	          0.01187250	          0.01100247	          0.01191209	          0.08760473	          0.26365461	          0.03423044	          0.01141961	          0.01218633	          0.01027148	          0.22587984	          0.08420018	          0.10072419	          0.01057354	          0.01017270	          0.01038790	
          1.11000000	         -1.49414147	         -2.61426344	        -31.30905990	          1.18912828	          0.92332773	          0.29918890	         -4.92048710	        -13.13486887	        -15.05000203	         -6.52573108	          3.40258811	        -10.06011101	          7.98956751	          3.45027854	          4.39527136	         11.26039515	         -9.04085514	         -9.98927356	          2.54523336	          3.64753857	         -6.42776567	          4.39031189	          0.69580331	          2.48233637	        -12.29920440	         30.23112131	          1.89608241	        -20.21854535	         22.60301510	         24.89187426	         28.53690039	         66.12285759	         63.49268881	          0.05438693	          0.18176941	          0.01631177	          0.01535036	          0.02904421	          0.01909481	          0.01284963	          0.02588242	          0.01268717	          0.01312875	          0.02360858	          0.03222548	          0.12348567	          0.25141762	          0.01263884	          0.01224575	          0.01133361	          0.06211513	          0.01408303	          0.01268673	          0.03302037	          0.01683255	          0.01450322	          0.02617516	          0.08144731	          0.01832422	          0.01679233	          0.01692438	          0.04580040	          0.02111995	          0.01970964	          0.05362205	          0.02643052	          0.05749461	          0.02522496	          0.04269901	          0.03871943	          0.01175483	          0.01054611	          0.01116520	          0.04918312	          0.17618815	          0.01130748	          0.01121587	          0.01314030	          0.01528805	          0.01025988	          0.02851906	          0.01695183	          0.02278122	          0.02562250	          0.03343205	          0.06147855	          0.15954118	          0.01033491	          0.01024405	          0.01025610	          0.10207117	          0.01067183	          0.01031661	          0.12678265	          0.01653771	          0.01125816	          0.01679575	          0.23247044	          0.01238416	          0.01124472	          0.01028914	          0.10133546	          0.22007195	          0.03903165	          0.01026181	          0.01089715	          0.01497256	          0.19448066	          0.07060907	          0.08426153	          0.01261278	          0.01135588	          0.01215617	
          1.12000000	         -1.40709222	         -2.57344838	        -31.39873353	          1.18785077	          0.92341952	          0.30085319	         -4.96713230	        -13.19400373	        -15.09568330	         -6.54569409	          3.43051300	         -9.86430003	          8.10289945	          3.50324279	          4.51700679	         11.33911218	         -9.10868169	         -9.99427985	          0.91362434	          2.59632941	         -6.39596802	          4.53204404	          0.72477644	          2.40034921	        -12.32239011	         30.21765844	          1.98444740	        -20.15267722	         22.58588124	         24.80066839	         28.59143286	         66.08875381	         63.47050482	          0.09324808	          0.18121034	          0.05095943	          0.07016666	          0.07249306	          0.01785192	          0.01085180	          0.02204086	          0.04422098	          0.04191536	          0.02399965	          0.02755754	          0.10297605	          0.20957691	          0.01079781	          0.01042889	          0.01033026	          0.05785344	          0.01196137	          0.01073327	          0.07335244	          0.01448450	          0.01252002	          0.02563879	          0.09793892	          0.01564918	          0.01413101	          0.01558115	          0.04029694	          0.01800975	          0.01696046	          0.04485960	          0.02241384	          0.04795668	          0.02252808	          0.13824917	          0.04473211	          0.02479525	          0.02310713	          0.02447728	          0.04135722	          0.14704047	          0.01058553	          0.01056934	          0.01161231	          0.01341489	          0.01016010	          0.03213978	          0.02132430	          0.02221448	          0.02305491	          0.02867802	          0.08351126	          0.16000028	          0.01023170	          0.01015952	          0.01015929	          0.15214467	          0.01056922	          0.01025715	          0.13918291	          0.03123189	          0.01118836	          0.01486008	          0.19446844	          0.01646373	          0.01560738	          0.01025958	          0.10047430	          0.18345999	          0.06006460	          0.01014102	          0.01041131	          0.01277843	          0.16320898	          0.05948526	          0.07213429	          0.01148092	          0.01047735	          0.01105819	
          1.13000000	         -1.27427164	         -2.57143870	        -31.46936210	          1.18642563	          0.92364972	          0.30239960	         -4.98961233	        -13.28037377	        -15.13221078	         -6.61643543	          3.47520665	         -9.62842031	          8.36178417	          3.56611048	          4.77627381	         11.40543532	         -9.21872982	        -10.10342988	         -0.33798033	          1.70785428	         -6.48878943	          4.70688469	          0.70811129	          2.25662510	        -12.37793224	         30.11415582	          2.01931343	        -20.22685846	         22.64225688	         24.87348055	         29.08540731	         66.06462942	         63.47573930	          0.07812540	          0.15117234	          0.04440500	          0.07589746	          0.06096923	          0.01572619	          0.01207107	          0.01894700	          0.03703562	          0.03523133	          0.02583262	          0.03995186	          0.11061386	          0.22072969	          0.01166542	          0.01187722	          0.01260232	          0.10256650	          0.01139896	          0.01060713	          0.06319488	          0.01305191	          0.01176693	          0.02286419	          0.08202907	          0.01371496	          0.01219181	          0.01538223	          0.03406474	          0.01510241	          0.01470211	          0.05857833	          0.03097007	          0.05534323	          0.01953213	          0.11529718	          0.04064509	          0.02105172	          0.01937293	          0.02066431	          0.03469421	          0.12262282	          0.01085618	          0.01099500	          0.01123106	          0.01215896	          0.01042057	          0.03781604	          0.01894355	          0.02143633	          0.02615936	          0.03711961	          0.10383580	          0.16461726	          0.01050847	          0.01034675	          0.01028887	          0.15682020	          0.01212023	          0.01066103	          0.11689426	          0.03144113	          0.01350460	          0.01378108	          0.16227730	          0.01492906	          0.01357396	          0.01067350	          0.08409217	          0.15293531	          0.05139104	          0.01053471	          0.01108533	          0.01342134	          0.13649405	          0.05100670	          0.07546563	          0.01098428	          0.01032762	          0.01069148	
